<svg xmlns="http://www.w3.org/2000/svg" viewBox="0 0 320 100">
  <defs>
    <linearGradient id="textGrad" x1="0%" y1="0%" x2="0%" y2="100%">
      <stop offset="0%" style="stop-color:#8FBFB0;stop-opacity:1" />
      <stop offset="100%" style="stop-color:#5B9A8B;stop-opacity:1" />
    </linearGradient>
    <linearGradient id="spiralGrad1" x1="0%" y1="0%" x2="100%" y2="100%">
      <stop offset="0%" style="stop-color:#7CB69D;stop-opacity:1" />
      <stop offset="100%" style="stop-color:#4A8B7C;stop-opacity:1" />
    </linearGradient>
    <linearGradient id="spiralGrad2" x1="100%" y1="0%" x2="0%" y2="100%">
      <stop offset="0%" style="stop-color:#5B9A8B;stop-opacity:1" />
      <stop offset="100%" style="stop-color:#3D7A6C;stop-opacity:1" />
    </linearGradient>
    <linearGradient id="spiralGrad3" x1="50%" y1="0%" x2="50%" y2="100%">
      <stop offset="0%" style="stop-color:#9DD4BE;stop-opacity:1" />
      <stop offset="100%" style="stop-color:#6BAA96;stop-opacity:1" />
    </linearGradient>
  </defs>
  
  <!-- R letter -->
  <path d="M10,15 L10,85 L30,85 L30,60 L45,60 L60,85 L82,85 L65,57 C75,53 82,43 82,32 C82,20 72,15 55,15 L10,15 Z M30,32 L50,32 C58,32 62,35 62,40 C62,45 58,48 50,48 L30,48 L30,32 Z" fill="url(#textGrad)"/>
  
  <!-- 2 number -->
  <path d="M90,15 C90,15 95,15 110,15 C135,15 150,25 150,40 C150,52 140,60 120,70 L95,85 L150,85 L150,70 L125,70 L145,55 C160,42 165,32 165,22 C165,15 155,15 155,15 C155,15 145,15 130,15 C105,15 90,25 90,40 L108,40 C108,32 115,28 125,28 C135,28 142,32 142,40 C142,48 135,55 120,65 L90,85 L90,70 L90,15 Z" fill="url(#textGrad)"/>
  
  <!-- E letter -->
  <path d="M175,15 L175,85 L245,85 L245,70 L195,70 L195,55 L240,55 L240,42 L195,42 L195,30 L245,30 L245,15 L175,15 Z" fill="url(#textGrad)"/>
  
  <!-- Spiral/Swirl Icon -->
  <g transform="translate(285, 50)">
    <path d="M0,-28 Q22,-28 28,0 Q28,22 0,28 Q-11,17 0,0 Q6,-11 0,-28" fill="url(#spiralGrad1)" opacity="0.95"/>
    <path d="M28,0 Q28,22 0,28 Q-22,28 -28,0 Q-17,-11 0,0 Q11,6 28,0" fill="url(#spiralGrad2)" opacity="0.9"/>
    <path d="M0,28 Q-22,28 -28,0 Q-28,-22 0,-28 Q11,-17 0,0 Q-6,11 0,28" fill="url(#spiralGrad3)" opacity="0.85"/>
  </g>
</svg>
